<svg width="2840" height="507" viewBox="0 0 2840 507" fill="none" xmlns="http://www.w3.org/2000/svg">
<path d="M186.681 254.557L188.467 253.139L191.461 250.722L193.562 249.042L197.239 246.1L197.869 245.575L218.092 229.344L220.876 227.085C238.525 212.798 231.381 192.943 199.13 192.943H148.704C86.8797 192.943 90.6091 108.9 146.445 108.9H339.008C370.84 108.9 372.468 88.7297 360.912 76.8061C323.238 52.2968 279.267 39.2333 234.322 39.1969C230.803 39.1969 227.336 39.1969 223.817 39.4595H221.979C218.512 39.4595 215.098 39.9323 211.473 40.2474H209.372L198.867 41.5081L197.554 41.7707C194.402 42.2435 191.25 42.8213 188.151 43.399L186.418 43.7667C183.214 44.3971 180.01 45.1324 176.858 45.9203L174.389 46.5507L165.302 49.1245L162.886 49.9124L155.007 52.5387L152.538 53.4317C149.912 54.4297 147.286 55.4277 144.659 56.5308L141.613 57.7914C138.986 58.912 136.412 60.0676 133.891 61.2582L130.529 62.8865C128.428 63.8845 126.38 64.9351 124.331 66.0381L119.919 68.4018L114.666 71.2908L110.99 73.4444C108.836 74.7576 106.787 76.1233 104.686 77.489L101.482 80.3254L97.1749 83.372L91.502 87.5741L88.508 89.9378C86.2494 91.7237 84.0432 93.5622 81.8371 95.1905L79.3158 97.3966L75.0611 101.179L74.1682 102.019C71.4368 104.593 68.9155 107.272 66.2366 109.845L64.5032 111.631C62.1921 114.048 59.9334 116.516 57.6748 119.038L56.204 120.771C53.7878 123.555 51.4766 126.391 49.2179 129.333L48.7452 129.858L48.3775 130.331C48.1978 130.586 48.005 130.831 47.7997 131.066L43.8077 136.319L48.3775 130.173L48.7452 129.701C51.214 126.496 53.9979 123.397 56.4141 120.298C19.9342 162.656 -0.0897189 216.725 0.000302213 272.626C0.0098301 281.79 0.553527 290.945 1.62863 300.045C1.366 297.787 1.15589 295.475 0.945782 293.217C5.17062 340.688 23.9353 385.702 54.6807 422.118C26.7365 384.561 62.1395 353.833 62.1395 353.833L119.184 308.397L186.681 254.557ZM39.2378 143.358L39.553 142.99C40.8662 140.994 42.1793 139.05 43.545 137.107C41.7591 139.628 40.0257 142.36 38.2924 144.723C38.6075 144.356 38.9752 143.935 39.2378 143.358ZM34.6155 150.606C34.9832 150.029 35.3509 149.451 35.666 148.873L37.0842 146.614L32.9871 153.18C33.5124 152.392 34.0902 151.552 34.6155 150.711V150.606ZM0.31546 285.495C0.31546 288.174 0.578097 290.748 0.840731 293.427C0.735677 290.8 0.473041 288.174 0.31546 285.495Z" fill="#F7BC19"/>
<path d="M467.336 260.597C467.336 257.971 467.021 255.345 466.811 252.666C466.811 254.977 467.178 257.236 467.336 259.547C467.336 254.925 466.653 250.302 466.075 245.732C466.391 247.991 466.601 250.25 466.811 252.561C462.507 205.209 443.727 160.331 413.023 124.028C440.968 161.584 405.564 192.313 405.564 192.313L248.877 317.326L246.671 319.165C229.022 333.4 236.165 353.255 268.417 353.255H318.843C380.667 353.255 376.937 437.298 321.101 437.298H128.696C96.9168 437.298 95.2359 457.415 106.687 469.339C144.521 493.971 188.708 507.058 233.854 507.001H233.382C236.901 507.001 240.368 507.001 243.887 507.001H245.725C249.192 507.001 252.606 506.581 256.231 506.265H258.332C261.746 505.898 265.16 505.478 268.837 504.952H270.15C273.302 504.427 276.454 503.902 279.553 503.271L281.286 502.956C284.49 502.273 287.642 501.538 290.846 500.75L293.315 500.12C296.361 499.332 299.408 498.439 302.402 497.546L304.818 496.758C307.497 495.97 310.071 495.077 312.697 494.132L315.166 493.239C317.792 492.293 320.418 491.243 323.045 490.192L326.091 488.879C328.665 487.776 331.344 486.62 333.813 485.412L337.175 483.784C339.276 482.786 341.324 481.735 343.32 480.685L347.785 478.269L352.775 475.432L356.452 473.226L362.755 469.234L366.747 466.503L371.054 463.509L376.675 459.306L379.721 456.89C381.98 455.157 384.186 453.318 386.34 451.638C387.233 450.955 388.073 450.219 388.913 449.484L393.168 445.65L394.061 444.809C396.74 442.288 399.314 439.556 401.993 437.035L403.726 435.249C406.037 432.833 408.296 430.312 410.502 427.79L412.025 426.057C414.441 423.273 416.753 420.384 419.064 417.495L419.537 416.865C419.561 416.743 419.561 416.618 419.537 416.497C421.06 414.554 422.531 412.663 423.949 410.667C426.313 407.41 428.571 404.048 430.777 400.687C431.25 399.899 431.723 399.111 432.248 398.323L433.089 396.905C433.666 396.012 434.244 395.119 434.769 394.226C456.444 358.023 467.865 316.607 467.809 274.412C467.704 268.897 467.546 264.747 467.336 260.597Z" fill="#377DFF"/>
<path d="M829.239 459.137H563.611L697.659 222.084H563.611V141.192H829.239L695.086 378.246H829.239V459.137Z" fill="#377DFF"/>
<path d="M1105.91 422C1099.26 428.022 1092.24 433.618 1084.9 438.756C1077.54 444.004 1069.74 448.592 1061.57 452.465C1053.49 456.311 1045.07 459.406 1036.41 461.71C1027.84 463.97 1019.01 465.117 1010.15 465.124C991.283 465.256 972.57 461.724 955.049 454.724C937.801 447.948 922.143 437.673 909.061 424.546C895.98 411.42 885.759 395.727 879.043 378.455C871.359 358.8 867.576 337.837 867.907 316.736V140.561H948.798V316.684C948.632 326.464 950.289 336.189 953.683 345.363C956.674 353.168 961.171 360.307 966.92 366.374C972.398 372.086 979.045 376.548 986.407 379.453C994.03 382.47 1002.16 383.986 1010.36 383.918C1018.59 383.963 1026.71 381.979 1034 378.14C1041.4 374.295 1048.01 369.091 1053.48 362.802C1059.07 356.441 1063.49 349.152 1066.56 341.266C1069.73 333.366 1071.35 324.932 1071.34 316.421V140.561H1152.55V459.136H1132.9L1105.91 422Z" fill="#377DFF"/>
<path d="M1616.3 344.051C1616.42 360.296 1613.19 376.391 1606.79 391.325C1600.63 405.766 1591.71 418.863 1580.53 429.88C1569.4 440.87 1556.28 449.64 1541.87 455.723C1526.93 462.113 1510.84 465.366 1494.6 465.283C1479.76 465.327 1465.03 462.657 1451.16 457.404C1437.25 452.116 1424.45 444.298 1413.39 434.345C1402.5 444.311 1389.83 452.134 1376.04 457.404C1362.13 462.68 1347.37 465.35 1332.5 465.283C1316.25 465.386 1300.16 462.131 1285.22 455.723C1270.88 449.612 1257.81 440.843 1246.72 429.88C1235.54 418.863 1226.62 405.766 1220.46 391.325C1214.09 376.383 1210.85 360.293 1210.95 344.051V141.192H1292.16V344.051C1292.09 349.466 1293.17 354.835 1295.31 359.809C1297.31 364.605 1300.24 368.96 1303.92 372.626C1307.66 376.283 1312.06 379.19 1316.9 381.188C1321.88 383.3 1327.24 384.356 1332.66 384.287C1338.06 384.326 1343.42 383.272 1348.41 381.188C1353.27 379.161 1357.71 376.239 1361.49 372.573C1365.16 368.873 1368.05 364.481 1370 359.652C1372.13 354.674 1373.18 349.305 1373.1 343.893V141.192H1454.04V344.051C1453.96 349.479 1455.08 354.858 1457.3 359.809C1459.42 364.581 1462.39 368.925 1466.07 372.626C1469.8 376.291 1474.21 379.198 1479.05 381.188C1484.03 383.312 1489.39 384.368 1494.81 384.287C1500.21 384.336 1505.58 383.282 1510.56 381.188C1515.39 379.18 1519.78 376.254 1523.49 372.573C1527.18 368.883 1530.16 364.537 1532.26 359.757C1534.5 354.809 1535.63 349.43 1535.57 343.999V141.192H1616.46L1616.3 344.051Z" fill="#377DFF"/>
<path d="M1771 54.0508C1771.03 61.2761 1769.56 68.4287 1766.7 75.0615C1763.92 81.5057 1759.92 87.3549 1754.93 92.2903C1749.95 97.1695 1744.11 101.087 1737.7 103.846C1730.97 106.689 1723.74 108.154 1716.43 108.154C1709.12 108.154 1701.89 106.689 1695.16 103.846C1682.19 98.3866 1671.85 88.1036 1666.32 75.1666C1663.46 68.5315 1661.98 61.3818 1661.98 54.1558C1661.98 46.9299 1663.46 39.7802 1666.32 33.1451C1671.78 20.1232 1682.13 9.76702 1695.16 4.30788C1701.89 1.46482 1709.12 0 1716.43 0C1723.74 0 1730.97 1.46482 1737.7 4.30788C1744.17 7.06579 1750.06 11.0022 1755.09 15.9163C1760.09 20.8441 1764.08 26.6951 1766.85 33.1451C1769.63 39.7621 1771.05 46.8735 1771 54.0508ZM1757.03 459.138H1675.19V140.562H1757.03V459.138Z" fill="#F7BC19"/>
<path d="M1900.05 459.139H1818.84V140.563H1838.49L1865.28 171.502C1891.64 147.521 1926.02 134.257 1961.66 134.313C1980.57 134.187 1999.29 137.979 2016.66 145.448C2033.59 152.724 2048.95 163.213 2061.88 176.334C2074.85 189.442 2085.21 204.897 2092.4 221.875C2099.86 239.412 2103.65 258.288 2103.54 277.343V459.139H2022.33V277.133C2022.38 268.992 2020.75 260.928 2017.55 253.444C2014.5 246.173 2010.06 239.571 2004.47 234.009C1998.92 228.447 1992.36 223.991 1985.14 220.877C1977.72 217.712 1969.73 216.103 1961.66 216.15C1949.56 216.023 1937.69 219.502 1927.57 226.143C1917.45 232.785 1909.53 242.288 1904.83 253.444C1901.65 260.936 1900.02 268.995 1900.05 277.133V459.139Z" fill="#377DFF"/>
<path d="M2469.13 459.137H2449.49L2417.97 415.435C2410.17 422.416 2401.96 428.924 2393.39 434.922C2384.79 440.948 2375.69 446.221 2366.18 450.68C2356.76 455.094 2346.95 458.612 2336.87 461.185C2326.92 463.762 2316.68 465.068 2306.4 465.072C2285.03 465.16 2263.85 460.982 2244.1 452.784C2224.36 444.585 2206.45 432.531 2191.42 417.326C2176.43 402.011 2164.56 383.92 2156.49 364.063C2139.4 321.032 2139.4 273.098 2156.49 230.067C2164.56 210.132 2176.42 191.954 2191.42 176.543C2206.21 161.468 2223.8 149.44 2243.21 141.139C2263.12 132.579 2284.58 128.216 2306.25 128.323C2313.67 128.362 2321.08 128.959 2328.41 130.109C2336.03 131.314 2343.5 133.267 2350.74 135.939C2357.92 138.584 2364.75 142.113 2371.06 146.445C2377.37 150.758 2382.82 156.209 2387.14 162.518V13.8669H2468.97L2469.13 459.137ZM2387.3 297.144C2387.31 286.081 2385.15 275.123 2380.94 264.893C2376.81 254.708 2370.9 245.336 2363.5 237.211C2356.21 229.212 2347.48 222.654 2337.76 217.881C2327.97 213.019 2317.18 210.518 2306.25 210.58C2295.45 210.49 2284.74 212.524 2274.73 216.568C2265.08 220.369 2256.36 226.19 2249.15 233.639C2241.66 241.454 2235.83 250.711 2232.03 260.848C2227.85 272.481 2225.87 284.789 2226.2 297.144C2226.15 308.541 2228.27 319.843 2232.45 330.446C2236.4 340.651 2242.2 350.036 2249.57 358.128C2256.75 366.035 2265.45 372.413 2275.15 376.88C2285.02 381.47 2295.78 383.803 2306.67 383.708C2317.6 383.796 2328.4 381.294 2338.18 376.407C2347.91 371.651 2356.64 365.092 2363.92 357.077C2371.31 348.963 2377.21 339.611 2381.36 329.448C2385.43 319.17 2387.44 308.196 2387.3 297.144Z" fill="#377DFF"/>
<path d="M2839.45 459.137H2819.75L2788.23 415.435C2780.45 422.416 2772.26 428.924 2763.7 434.922C2755.1 440.938 2745.99 446.21 2736.49 450.681C2727.07 455.078 2717.26 458.595 2707.18 461.186C2697.21 463.762 2686.96 465.068 2676.66 465.073C2655.14 465.197 2633.77 461.35 2613.63 453.727C2594.3 446.483 2576.68 435.304 2561.89 420.898C2546.74 405.986 2534.83 388.103 2526.91 368.371C2518.02 345.695 2513.65 321.499 2514.04 297.145C2513.78 273.766 2518.11 250.564 2526.81 228.86C2534.83 208.938 2546.72 190.8 2561.79 175.492C2576.56 160.61 2594.15 148.824 2613.53 140.825C2633.51 132.577 2654.94 128.381 2676.56 128.481C2686.91 128.492 2697.21 129.798 2707.24 132.368C2717.36 134.889 2727.22 138.408 2736.65 142.873C2746.16 147.442 2755.27 152.819 2763.86 158.946C2772.44 165.035 2780.59 171.723 2788.23 178.959L2819.75 141.192H2839.39L2839.45 459.137ZM2757.66 297.145C2757.74 286.057 2755.63 275.063 2751.46 264.788C2747.35 254.605 2741.46 245.233 2734.08 237.106C2726.77 229.119 2718.04 222.564 2708.34 217.777C2698.54 212.923 2687.75 210.423 2676.82 210.475C2666.06 210.389 2655.37 212.312 2645.31 216.148C2635.68 219.791 2626.95 225.471 2619.73 232.799C2612.19 240.579 2606.35 249.846 2602.6 260.008C2594.27 283.992 2594.27 310.087 2602.6 334.071C2606.34 344.239 2612.18 353.509 2619.73 361.28C2626.94 368.625 2635.67 374.308 2645.31 377.931C2655.37 381.767 2666.06 383.691 2676.82 383.604C2687.76 383.683 2698.55 381.182 2708.34 376.303C2718.06 371.534 2726.79 364.976 2734.08 356.973C2741.45 348.856 2747.34 339.504 2751.46 329.344C2755.6 319.116 2757.71 308.179 2757.66 297.145Z" fill="#377DFF"/>
</svg>
